<svg xmlns="http://www.w3.org/2000/svg" viewBox="0 0 128 128">
  <defs>
    <linearGradient id="bg" x1="20" y1="12" x2="108" y2="116" gradientUnits="userSpaceOnUse">
      <stop offset="0" stop-color="#136f63"/>
      <stop offset="0.52" stop-color="#174b8f"/>
      <stop offset="1" stop-color="#1b2430"/>
    </linearGradient>
    <linearGradient id="chip" x1="35" y1="34" x2="93" y2="94" gradientUnits="userSpaceOnUse">
      <stop offset="0" stop-color="#f7fbff"/>
      <stop offset="1" stop-color="#cfe7ff"/>
    </linearGradient>
    <filter id="shadow" x="-20%" y="-20%" width="140%" height="140%">
      <feDropShadow dx="0" dy="5" stdDeviation="5" flood-color="#07111f" flood-opacity="0.35"/>
    </filter>
  </defs>
  <rect x="10" y="10" width="108" height="108" rx="24" fill="url(#bg)"/>
  <path d="M38 27h52c6.1 0 11 4.9 11 11v52c0 6.1-4.9 11-11 11H38c-6.1 0-11-4.9-11-11V38c0-6.1 4.9-11 11-11Z" fill="#ffffff" opacity="0.12"/>
  <g filter="url(#shadow)">
    <rect x="38" y="38" width="52" height="52" rx="10" fill="url(#chip)"/>
    <rect x="50" y="50" width="28" height="28" rx="5" fill="#1d3145"/>
    <path d="M67 45 53 68h14l-6 21 20-29H67l8-15Z" fill="#32d296"/>
  </g>
  <g fill="#d8f3ff">
    <rect x="32" y="48" width="8" height="4" rx="2"/>
    <rect x="32" y="61" width="8" height="4" rx="2"/>
    <rect x="32" y="74" width="8" height="4" rx="2"/>
    <rect x="88" y="48" width="8" height="4" rx="2"/>
    <rect x="88" y="61" width="8" height="4" rx="2"/>
    <rect x="88" y="74" width="8" height="4" rx="2"/>
    <rect x="48" y="32" width="4" height="8" rx="2"/>
    <rect x="61" y="32" width="4" height="8" rx="2"/>
    <rect x="74" y="32" width="4" height="8" rx="2"/>
    <rect x="48" y="88" width="4" height="8" rx="2"/>
    <rect x="61" y="88" width="4" height="8" rx="2"/>
    <rect x="74" y="88" width="4" height="8" rx="2"/>
  </g>
  <path d="M30 100c18.7 10.4 45.5 10.2 67-3" fill="none" stroke="#8df6c7" stroke-width="4" stroke-linecap="round" opacity="0.8"/>
</svg>
